<mxfile host="app.diagrams.net" modified="2023-06-19T02:03:58.071Z" agent="Mozilla/5.0 (Macintosh; Intel Mac OS X 10_15_7) AppleWebKit/537.36 (KHTML, like Gecko) Chrome/114.0.0.0 Safari/537.36" etag="Cn57saslFzE8-GxOhAgE" version="21.3.8" type="github">
  <diagram name="第 1 页" id="hjx9UMngOR1U0fq3IYw1">
    <mxGraphModel dx="1306" dy="812" grid="1" gridSize="10" guides="1" tooltips="1" connect="1" arrows="1" fold="1" page="1" pageScale="1" pageWidth="827" pageHeight="1169" math="0" shadow="0">
      <root>
        <mxCell id="0" />
        <mxCell id="1" parent="0" />
        <mxCell id="NRV5wv7FhYk1cSlDrk5y-5" style="edgeStyle=orthogonalEdgeStyle;rounded=0;orthogonalLoop=1;jettySize=auto;html=1;entryX=0.5;entryY=0;entryDx=0;entryDy=0;" edge="1" parent="1" source="NRV5wv7FhYk1cSlDrk5y-1" target="NRV5wv7FhYk1cSlDrk5y-2">
          <mxGeometry relative="1" as="geometry" />
        </mxCell>
        <mxCell id="NRV5wv7FhYk1cSlDrk5y-1" value="&lt;font color=&quot;#cc0000&quot;&gt;Comment：&lt;/font&gt;物流CRM C码宽表&lt;span data-sl-origin-json=&quot;JTVCJTdCJTIyYmdDb2xvciUyMiUzQSUyMiUyM0ZGRTVDNyUyMiUyQyUyMnRleHQlMjIlM0ElMjIlRTUlQUUlQTIlRTYlOUQlQTUlRTQlQkIlQkIlRTUlOEElQTElRTUlQkElOTUlRTUlQjElODIlRTYlQTglQTElRTUlOUUlOEIlMjIlN0QlNUQ=&quot;&gt;&lt;/span&gt;&lt;font color=&quot;#cc0000&quot;&gt;&lt;br&gt;File&lt;/font&gt;：app_cust_boai_customer_det_d&lt;span style=&quot;background-color: initial;&quot;&gt;.py&lt;/span&gt;&lt;br&gt;&lt;font color=&quot;#cc0000&quot;&gt;Target Table&lt;/font&gt;：app.app_cust_boai_customer_det_d" style="rounded=1;whiteSpace=wrap;html=1;align=left;fillColor=#FFCCCC;" vertex="1" parent="1">
          <mxGeometry x="25" y="210" width="330" height="60" as="geometry" />
        </mxCell>
        <mxCell id="NRV5wv7FhYk1cSlDrk5y-8" value="" style="edgeStyle=orthogonalEdgeStyle;rounded=0;orthogonalLoop=1;jettySize=auto;html=1;" edge="1" parent="1" source="NRV5wv7FhYk1cSlDrk5y-2" target="NRV5wv7FhYk1cSlDrk5y-7">
          <mxGeometry relative="1" as="geometry" />
        </mxCell>
        <mxCell id="NRV5wv7FhYk1cSlDrk5y-2" value="&lt;font color=&quot;#cc0000&quot;&gt;Comment&lt;/font&gt;：物流存量客户 C码-合同-经营情况-体保数据 宽表数据&lt;br&gt;&lt;font color=&quot;#cc0000&quot;&gt;File&lt;/font&gt;：app_cust_boai_customer_jy_det_d&lt;span style=&quot;background-color: initial;&quot;&gt;.py&lt;/span&gt;&lt;br&gt;&lt;font color=&quot;#cc0000&quot;&gt;Target Table&lt;/font&gt;：app.app_cust_boai_customer_jy_det_d" style="rounded=1;whiteSpace=wrap;html=1;align=left;" vertex="1" parent="1">
          <mxGeometry x="190" y="340" width="340" height="70" as="geometry" />
        </mxCell>
        <mxCell id="NRV5wv7FhYk1cSlDrk5y-3" value="&lt;font color=&quot;#cc0000&quot;&gt;Comment：&lt;/font&gt;物流CRM系统客户标签表&lt;br&gt;&lt;font color=&quot;#cc0000&quot;&gt;File&lt;/font&gt;：app_cust_boai_customer_tag_det_d&lt;span style=&quot;background-color: initial;&quot;&gt;.py&lt;/span&gt;&lt;br&gt;&lt;font color=&quot;#cc0000&quot;&gt;Target Table&lt;/font&gt;：app.app_cust_boai_customer_tag_det_d" style="rounded=1;whiteSpace=wrap;html=1;align=left;fillColor=#FFCCCC;" vertex="1" parent="1">
          <mxGeometry x="827" y="210" width="330" height="60" as="geometry" />
        </mxCell>
        <mxCell id="NRV5wv7FhYk1cSlDrk5y-6" style="edgeStyle=orthogonalEdgeStyle;rounded=0;orthogonalLoop=1;jettySize=auto;html=1;" edge="1" parent="1" source="NRV5wv7FhYk1cSlDrk5y-4" target="NRV5wv7FhYk1cSlDrk5y-2">
          <mxGeometry relative="1" as="geometry" />
        </mxCell>
        <mxCell id="NRV5wv7FhYk1cSlDrk5y-4" value="&lt;font color=&quot;#cc0000&quot;&gt;Comment：&lt;/font&gt; 存量客户C码全集&lt;font color=&quot;#cc0000&quot;&gt;&lt;br&gt;&lt;/font&gt;&lt;font color=&quot;#cc0000&quot;&gt;File&lt;/font&gt;：app_boai_ck_c_sum_m&lt;span style=&quot;background-color: initial;&quot;&gt;.py&lt;/span&gt;&lt;br&gt;&lt;font color=&quot;#cc0000&quot;&gt;Target Table&lt;/font&gt;：app.app_boai_ck_c_sum_m" style="rounded=1;whiteSpace=wrap;html=1;align=left;fillColor=#FFCCCC;" vertex="1" parent="1">
          <mxGeometry x="370" y="210" width="330" height="60" as="geometry" />
        </mxCell>
        <mxCell id="NRV5wv7FhYk1cSlDrk5y-7" value="&lt;font color=&quot;#cc0000&quot;&gt;Comment&lt;/font&gt;：物流存量客户 C码-合同-经营情况-体保数据 汇总数据&lt;br&gt;&lt;font color=&quot;#cc0000&quot;&gt;File&lt;/font&gt;：app_cust_boai_customer_jy_sum_d&lt;span style=&quot;background-color: initial;&quot;&gt;.py&lt;/span&gt;&lt;br&gt;&lt;font color=&quot;#cc0000&quot;&gt;Target Table&lt;/font&gt;：app.app_cust_boai_customer_jy_sum_d" style="rounded=1;whiteSpace=wrap;html=1;align=left;" vertex="1" parent="1">
          <mxGeometry x="190" y="450" width="340" height="70" as="geometry" />
        </mxCell>
      </root>
    </mxGraphModel>
  </diagram>
</mxfile>
